# xmcd
#
# Track frame offsets:
#	150
#	25217
#	53242
#	95774
#	126639
#	167164
#	206977
#	245302
#	309189
#
# Disc length: 4287 seconds
#
# Revision: 1
# Processed by: cddbd v1.5.2PL0 Copyright (c) Steve Scherf et al.
# Submitted via: audiograbber 1.83.01
#
DISCID=7f10bd09
DTITLE=Frauke Scheunemann - Hochzeitsküsse CD3-3
DYEAR=2013
DGENRE=Hörbuch
TTITLE0=301
TTITLE1=302
TTITLE2=303
TTITLE3=304
TTITLE4=305
TTITLE5=306
TTITLE6=307
TTITLE7=308
TTITLE8=309
EXTD=
EXTT0=
EXTT1=
EXTT2=
EXTT3=
EXTT4=
EXTT5=
EXTT6=
EXTT7=
EXTT8=
PLAYORDER=
